<svg width="97" height="97" viewBox="0 0 97 97" fill="none" xmlns="http://www.w3.org/2000/svg">
<path d="M92.4857 36.1911H94.4963V32.17H80.4223V24.1278H86.454C86.9034 24.1278 87.3397 23.9772 87.6935 23.7002C88.0473 23.4232 88.2981 23.0357 88.4059 22.5994C88.5137 22.1632 88.4722 21.7035 88.2882 21.2936C88.1041 20.8837 87.788 20.5472 87.3904 20.3379L49.1898 0.232403C48.9013 0.0797832 48.5798 0 48.2534 0C47.927 0 47.6056 0.0797832 47.3171 0.232403L9.11646 20.3379C8.71885 20.5472 8.40281 20.8837 8.21876 21.2936C8.03471 21.7035 7.99326 22.1632 8.10103 22.5994C8.20881 23.0356 8.45959 23.4231 8.81335 23.7001C9.16712 23.9772 9.60348 24.1277 10.0528 24.1277H16.0845V32.17H2.01056V36.1911H4.02112V92.4867H0V96.5078H96.5068V92.4867H92.4857V36.1911ZM48.2534 4.2835L78.3175 20.1067H18.1893L48.2534 4.2835ZM78.4118 92.4868H18.095V88.4657C18.0957 87.9326 18.3077 87.4216 18.6846 87.0447C19.0615 86.6678 19.5726 86.4558 20.1056 86.4551H76.4012C76.9343 86.4558 77.4453 86.6678 77.8222 87.0447C78.1991 87.4216 78.4111 87.9326 78.4118 88.4657V92.4868ZM88.4646 92.4868H82.4329V88.4657C82.4311 86.8665 81.7951 85.3334 80.6643 84.2026C79.5335 83.0718 78.0004 82.4357 76.4012 82.4339H20.1056C18.5064 82.4358 16.9733 83.0718 15.8425 84.2026C14.7118 85.3333 14.0757 86.8665 14.0739 88.4656V92.4867H8.04224V36.1911H16.0845V42.2228H20.1056V24.1278H76.4012V42.2228H80.4223V36.1911H88.4646V92.4868ZM47.3542 32.3821L15.1853 48.4665C14.7805 48.6694 14.456 49.0028 14.2643 49.413C14.0726 49.8231 14.0249 50.2859 14.129 50.7266C14.233 51.1672 14.4826 51.5598 14.8375 51.8409C15.1924 52.122 15.6317 52.2752 16.0845 52.2756H80.4223C80.8751 52.2752 81.3144 52.122 81.6693 51.8409C82.0242 51.5598 82.2738 51.1672 82.3779 50.7266C82.4819 50.286 82.4342 49.8231 82.2425 49.413C82.0508 49.0028 81.7263 48.6694 81.3216 48.4665L49.1527 32.3821C48.8734 32.2426 48.5656 32.17 48.2534 32.17C47.9413 32.17 47.6334 32.2426 47.3542 32.3821ZM24.6019 48.2545L48.2534 36.4289L71.905 48.2545H24.6019ZM64.3379 54.2862H68.359V80.4234H64.3379L64.3379 54.2862ZM76.4012 54.2862H80.4223V80.4234H76.4012L76.4012 54.2862ZM16.0844 54.2862H20.1056V80.4234H16.0845L16.0844 54.2862ZM52.2745 54.2862H56.2956V80.4234H52.2745L52.2745 54.2862ZM40.2112 54.2862H44.2323V80.4234H40.2112L40.2112 54.2862ZM28.1478 54.2862H32.1689V80.4234H28.1478L28.1478 54.2862Z" fill="white"/>
</svg>
