<svg width="83" height="85" viewBox="0 0 83 85" fill="none" xmlns="http://www.w3.org/2000/svg">
<path d="M19.9115 23.2466L20.173 23.3574C20.9851 23.7031 21.9075 24.0962 22.9375 24.2297L24.1174 24.3848C24.139 26.6961 24.4017 30.431 24.9189 32.5719C26.2109 37.923 28.5296 42.0598 32.0075 45.2212C34.8923 47.8457 38.331 49.165 41.774 49.165C44.9424 49.165 48.1158 48.0471 50.8657 45.796C52.3628 44.5718 53.7581 43.0284 55.0114 41.2047C57.5651 37.4944 59.0154 33.0981 59.4427 27.7673C59.4883 27.2184 59.4788 25.8612 59.4642 24.4736C60.8265 24.1932 62.1122 23.8109 63.2377 23.4538C64.2366 23.1354 64.9323 22.5935 65.3033 21.8427C65.8686 20.6957 65.4451 19.5138 65.3052 19.1233C64.9152 18.044 63.9632 16.6412 61.638 16.0815C61.5893 16.0695 61.5418 16.0644 61.493 16.0536C59.2306 6.84494 50.9962 0 41.2068 0C31.265 0 22.9269 7.06339 20.8218 16.4909C19.4905 17.1188 18.5573 18.1759 18.1764 19.5819C17.7459 21.1784 18.4264 22.6168 19.9128 23.2465L19.9115 23.2466ZM55.8248 27.4727C55.4501 32.1565 54.2049 35.9744 52.0215 39.1471C50.9618 40.6873 49.8009 41.9787 48.5683 42.9853C44.2124 46.5479 38.6721 46.3719 34.4491 42.5346C31.5271 39.8783 29.5639 36.3409 28.4487 31.7199C28.0486 30.0608 27.8087 26.981 27.7586 24.8571C29.8096 25.1129 31.8885 25.3408 33.9686 25.4553C37.0971 25.6269 40.0445 25.7143 42.8571 25.7143C47.489 25.7143 51.7456 25.4648 55.8412 24.9882C55.8482 25.9023 55.8539 27.1152 55.8248 27.4728L55.8248 27.4727ZM41.2075 3.62939C50.6695 3.62939 58.3693 11.3898 58.473 20.9662C58.1571 21.027 57.8406 21.0852 57.5222 21.1295C50.5481 22.0999 43.1283 22.3221 34.1682 21.8303C31.2417 21.6695 28.2425 21.27 25.3418 20.8845L23.9561 20.7022C23.9669 20.285 23.9789 19.8672 24.0175 19.457L24.3543 19.4387L24.26 17.7915C25.8122 9.73247 32.8185 3.62927 41.2078 3.62927L41.2075 3.62939Z" fill="#FCFDFE"/>
<path d="M82.8202 82.2757L81.9016 75.8333C81.1686 70.7082 80.4368 65.5839 79.7309 60.4582C79.2814 57.1935 77.493 55.6459 76.0739 54.9217C74.2325 53.9835 72.3771 53.1822 70.4109 52.3325C69.5911 51.9774 68.758 51.6185 67.9136 51.2418L66.3905 50.5644C64.6238 49.625 62.4657 48.5862 60.6343 47.7075C59.7569 47.2847 58.9605 46.9017 58.3376 46.5921L55.8808 45.3698L54.5755 67.1777L29.0419 67.1783L27.7379 45.3574L24.4732 46.9893C21.9779 48.2364 17.3776 50.5343 15.5259 51.4016L15.3772 51.4504C15.2132 51.5042 15.0898 51.5441 14.96 51.5909C14.339 51.8232 13.7174 52.0511 13.0957 52.279C11.522 52.8582 9.8951 53.4552 8.305 54.1059C7.44471 54.4598 6.28124 55.1035 5.62038 56.1671C5.0285 57.1318 4.21567 58.5973 3.96935 60.1836C3.19071 65.1978 2.47919 70.2989 1.7905 75.2327L1.16316 79.7145C1.06441 80.4071 0.977057 81.0996 0.889061 81.8016L0.476318 84.9927H65.6376V84.9788H82.8415L82.8453 82.9942C82.8516 82.8005 82.8605 82.5587 82.8199 82.2764L82.8202 82.2757ZM12.5947 81.3622H4.60382C4.65257 80.983 4.70385 80.6051 4.75828 80.2259L5.38688 75.7339C6.07309 70.8133 6.78336 65.7256 7.55763 60.7393C7.70386 59.7973 8.28815 58.7611 8.71038 58.073C8.77179 57.9786 9.09274 57.7071 9.68336 57.4634C11.2109 56.8392 12.8055 56.253 14.3468 55.6871C14.3861 55.6725 14.4241 55.6592 14.4621 55.6446L15.4395 81.3614L12.5946 81.3607L12.5947 81.3622ZM19.0732 81.3622L18.0413 54.2242C19.7556 53.3969 22.3524 52.1055 24.4432 51.0615L25.6238 70.8081H57.9962L59.1768 51.0356C61.1905 52.0029 63.5783 53.1556 65.3134 54.1121L64.2809 81.3635L19.0737 81.3629L19.0732 81.3622ZM67.9137 81.3483L68.8867 55.6283C68.9146 55.641 68.9437 55.653 68.9722 55.6644C70.8813 56.4892 72.6868 57.2697 74.4246 58.1554C75.0373 58.4674 75.8799 59.0967 76.1362 60.9521C76.842 66.0848 77.5757 71.2161 78.3087 76.3475L79.0247 81.3477L67.9137 81.3483Z" fill="#FCFDFE"/>
</svg>
