<svg width="109" height="103" viewBox="0 0 109 103" fill="none" xmlns="http://www.w3.org/2000/svg">
<mask id="path-1-outside-1_505_52" maskUnits="userSpaceOnUse" x="0" y="0" width="109" height="103" fill="black">
<rect fill="white" width="109" height="103"/>
<path fill-rule="evenodd" clip-rule="evenodd" d="M77.9211 44.1055C78.5197 44.1072 79.1052 43.9312 79.6037 43.5999C80.1022 43.2685 80.4911 42.7967 80.7213 42.2442C80.9515 41.6917 81.0126 41.0833 80.8969 40.4961C80.7811 39.9088 80.4937 39.3691 80.071 38.9453C79.6484 38.5215 79.1095 38.2326 78.5226 38.1152C77.9356 37.9978 77.3271 38.0572 76.7739 38.2859C76.2208 38.5146 75.7479 38.9022 75.4152 39.3998C75.0825 39.8974 74.9049 40.4825 74.9049 41.081C74.9046 41.8818 75.222 42.65 75.7875 43.2171C76.353 43.7841 77.1203 44.1037 77.9211 44.1055ZM77.9211 46.6129C76.8273 46.6117 75.7583 46.2863 74.8494 45.6777C73.9404 45.0692 73.2323 44.2048 72.8145 43.1939C72.3968 42.1829 72.2881 41.0708 72.5022 39.9982C72.7163 38.9255 73.2436 37.9403 74.0175 37.1673C74.7914 36.3942 75.7771 35.8679 76.85 35.655C77.9229 35.442 79.0349 35.5519 80.0454 35.9708C81.0559 36.3896 81.9195 37.0987 82.5271 38.0083C83.1347 38.9179 83.459 39.9872 83.459 41.081C83.4571 42.5486 82.8728 43.9555 81.8345 44.9927C80.7962 46.0299 79.3887 46.6126 77.9211 46.6129ZM95.3348 55.4701C95.3341 54.8726 95.1562 54.2887 94.8236 53.7923C94.491 53.2958 94.0187 52.9092 93.4663 52.6812C92.914 52.4533 92.3064 52.3942 91.7205 52.5116C91.1346 52.6289 90.5967 52.9174 90.1747 53.3405C89.7528 53.7636 89.4658 54.3023 89.35 54.8886C89.2343 55.4748 89.295 56.0822 89.5245 56.6339C89.754 57.1856 90.1419 57.6569 90.6393 57.9881C91.1366 58.3193 91.721 58.4956 92.3186 58.4947C93.1195 58.4931 93.887 58.1737 94.4525 57.6066C95.0181 57.0394 95.3354 56.271 95.3348 55.4701ZM97.8481 55.4701C97.8485 56.565 97.5242 57.6354 96.9162 58.546C96.3082 59.4565 95.4437 60.1662 94.4322 60.5853C93.4207 61.0044 92.3077 61.1141 91.2338 60.9004C90.16 60.6867 89.1737 60.1594 88.3996 59.385C87.6256 58.6106 87.0987 57.6241 86.8855 56.5502C86.6723 55.4762 86.7824 54.3632 87.2019 53.3519C87.6215 52.3406 88.3316 51.4764 89.2423 50.8688C90.1531 50.2611 91.2237 49.9373 92.3186 49.9382C93.7847 49.9408 95.1901 50.5245 96.2266 51.5614C97.2631 52.5984 97.8462 54.004 97.8481 55.4701ZM95.1969 36.2648C95.3231 36.3704 95.4273 36.4999 95.5035 36.6458C95.5798 36.7916 95.6265 36.9511 95.6411 37.1151C95.6556 37.279 95.6378 37.4442 95.5885 37.6013C95.5392 37.7583 95.4594 37.9041 95.3538 38.0303L76.8071 60.133C76.6907 60.2723 76.5453 60.3844 76.381 60.4617C76.2167 60.5389 76.0375 60.5793 75.856 60.58C75.6172 60.5804 75.3833 60.5127 75.1816 60.3848C74.9799 60.2569 74.8189 60.0741 74.7175 59.858C74.616 59.6418 74.5783 59.4012 74.6087 59.1644C74.6392 58.9275 74.7366 58.7043 74.8895 58.5208L93.4361 36.4194C93.5416 36.2931 93.671 36.1888 93.8169 36.1127C93.9627 36.0365 94.1222 35.9899 94.2862 35.9755C94.4501 35.9612 94.6152 35.9793 94.7721 36.029C94.929 36.0786 95.0746 36.1588 95.2004 36.2648H95.1969ZM33.2914 80.3964V88.3548C34.1379 88.0882 34.8774 87.5587 35.4023 86.8431C35.9272 86.1275 36.2103 85.2631 36.2103 84.3756C36.2103 83.4881 35.9272 82.6237 35.4023 81.9081C34.8774 81.1925 34.1379 80.6629 33.2914 80.3964ZM30.7781 77.5014V69.543C29.9322 69.8102 29.1934 70.34 28.6691 71.0556C28.1447 71.7711 27.862 72.6351 27.862 73.5222C27.862 74.4093 28.1447 75.2733 28.6691 75.9889C29.1934 76.7044 29.9322 77.2342 30.7781 77.5014ZM33.2914 69.543V77.8153C34.8168 78.1078 36.1926 78.9227 37.1821 80.1199C38.1716 81.3172 38.7129 82.8218 38.7129 84.375C38.7129 85.9282 38.1716 87.4328 37.1821 88.6301C36.1926 89.8273 34.8168 90.6422 33.2914 90.9347V92.4981C33.2914 92.8314 33.159 93.151 32.9233 93.3867C32.6877 93.6223 32.368 93.7547 32.0348 93.7547C31.7015 93.7547 31.3818 93.6223 31.1462 93.3867C30.9105 93.151 30.7781 92.8314 30.7781 92.4981V90.9347C29.2537 90.6407 27.879 89.8254 26.8901 88.6286C25.9011 87.4318 25.3594 85.9281 25.358 84.3756C25.358 84.0436 25.4899 83.7251 25.7246 83.4904C25.9594 83.2556 26.2778 83.1237 26.6099 83.1237C26.9419 83.1237 27.2603 83.2556 27.4951 83.4904C27.7299 83.7251 27.8618 84.0436 27.8618 84.3756C27.8638 85.2622 28.1473 86.1253 28.6714 86.8405C29.1956 87.5556 29.9332 88.0859 30.7781 88.3548V80.0825C29.2531 79.7894 27.8778 78.9741 26.8887 77.7769C25.8997 76.5796 25.3586 75.0752 25.3586 73.5222C25.3586 71.9693 25.8997 70.4648 26.8887 69.2676C27.8778 68.0703 29.2531 67.2551 30.7781 66.9619V65.3997C30.7781 65.0664 30.9105 64.7468 31.1462 64.5111C31.3818 64.2755 31.7015 64.1431 32.0348 64.1431C32.368 64.1431 32.6877 64.2755 32.9233 64.5111C33.159 64.7468 33.2914 65.0664 33.2914 65.3997V66.9619C34.8172 67.2564 36.1927 68.073 37.1818 69.2715C38.1709 70.47 38.7118 71.9754 38.7116 73.5294C38.7246 73.7012 38.7019 73.8739 38.6451 74.0366C38.5882 74.1994 38.4984 74.3486 38.3812 74.475C38.264 74.6014 38.122 74.7022 37.9641 74.7711C37.8061 74.8401 37.6356 74.8757 37.4632 74.8757C37.2909 74.8757 37.1204 74.8401 36.9624 74.7711C36.8044 74.7022 36.6624 74.6014 36.5452 74.475C36.428 74.3486 36.3382 74.1994 36.2814 74.0366C36.2245 73.8739 36.2019 73.7012 36.2149 73.5294C36.2128 72.6424 35.9292 71.779 35.4048 71.0637C34.8805 70.3483 34.1425 69.8179 33.2974 69.549L33.2914 69.543ZM105.49 48.2762C105.49 52.3056 104.294 56.2444 102.055 59.5945C99.8159 62.9446 96.6338 65.5556 92.9109 67.0974C89.1881 68.6391 85.0917 69.0424 81.1396 68.2562C77.1876 67.47 73.5574 65.5296 70.7081 62.6805C67.8587 59.8313 65.9182 56.2012 65.1317 52.2492C64.3453 48.2972 64.7483 44.2008 66.2898 40.4778C67.8314 36.7549 70.4422 33.5726 73.7921 31.3333C77.1421 29.0941 81.0808 27.8984 85.1103 27.8974C90.5138 27.9021 95.6946 30.0507 99.5155 33.8714C103.336 37.6921 105.485 42.8727 105.49 48.2762ZM83.8584 81.464C83.8584 83.342 83.1124 85.1431 81.7844 86.471C80.4565 87.799 78.6554 88.545 76.7774 88.545C74.8994 88.545 73.0983 87.799 71.7704 86.471C70.4424 85.1431 69.6964 83.342 69.6964 81.464V73.1251C69.6961 72.9599 69.6632 72.7964 69.5996 72.6439C69.536 72.4914 69.443 72.3529 69.3258 72.2364C69.2086 72.1199 69.0696 72.0276 68.9168 71.9649C68.7639 71.9022 68.6002 71.8702 68.435 71.8709H53.7997C52.7342 68.5904 50.9405 65.5933 48.5528 63.1041C46.1652 60.6148 43.2455 58.6979 40.0122 57.4966C36.7789 56.2954 33.3158 55.8409 29.8821 56.1674C26.4484 56.4938 23.1329 57.5926 20.1839 59.3816V10.5908C20.1845 8.71076 20.9319 6.90799 22.2616 5.57896C23.5913 4.24993 25.3944 3.50348 27.2744 3.5038H86.9923C86.0056 4.40123 85.2171 5.49484 84.6775 6.7146C84.1378 7.93437 83.8588 9.25339 83.8584 10.5872V25.4245C78.0149 25.7457 72.5163 28.2932 68.4932 32.5435C64.4701 36.7938 62.2281 42.4238 62.2281 48.2762C62.2281 54.1286 64.4701 59.7586 68.4932 64.0089C72.5163 68.2591 78.0149 70.8067 83.8584 71.1278V81.464ZM70.3122 88.5462C69.3254 87.6491 68.5369 86.5557 67.9972 85.3361C67.4575 84.1165 67.1786 82.7977 67.1783 81.464V74.3794H54.4572C55.4345 79.1573 54.8541 84.1226 52.8011 88.5462H70.3122ZM52.4111 78.9483C52.4111 82.9786 51.216 86.9183 48.9768 90.2693C46.7376 93.6203 43.5549 96.232 39.8314 97.7741C36.1078 99.3162 32.0105 99.7194 28.0578 98.9328C24.105 98.1462 20.4743 96.2051 17.6248 93.3549C14.7753 90.5047 12.835 86.8736 12.0493 82.9206C11.2636 78.9677 11.6678 74.8705 13.2108 71.1473C14.7538 67.4241 17.3662 64.2421 20.7177 62.0037C24.0692 59.7653 28.0092 58.571 32.0395 58.5719C37.4415 58.5776 42.6205 60.7264 46.4398 64.5466C50.2592 68.3668 52.4067 73.5463 52.4111 78.9483ZM11.2649 88.5462C9.87336 85.538 9.15365 82.2628 9.15578 78.9483C9.15594 77.4141 9.30806 75.8837 9.60993 74.3794H3.50974V81.464C3.51132 83.3425 4.25847 85.1435 5.58708 86.4714C6.91568 87.7993 8.71707 88.5456 10.5955 88.5462H11.2649ZM93.4575 3.5038C91.5789 3.50474 89.7776 4.25126 88.449 5.57938C87.1204 6.9075 86.3733 8.70864 86.3717 10.5872V17.6706H100.534V10.5908C100.534 8.71304 99.7886 6.91206 98.4618 5.5833C97.1351 4.25455 95.3352 3.50663 93.4575 3.5038ZM108 48.2762C107.992 54.1258 105.748 59.7511 101.727 63.9996C97.7055 68.2481 92.2121 70.7983 86.3717 71.1278V81.464C86.368 84.0063 85.3565 86.4433 83.5589 88.2411C81.7614 90.0389 79.3244 91.0507 76.7822 91.0548H51.4446C49.3909 94.3518 46.5313 97.0714 43.1353 98.957C39.7394 100.843 35.9191 101.832 32.0348 101.832C28.1504 101.832 24.3301 100.843 20.9342 98.957C17.5382 97.0714 14.6786 94.3518 12.625 91.0548H10.5955C8.05232 91.0519 5.61403 90.0407 3.81527 88.2429C2.01651 86.445 1.00409 84.0072 1 81.464V73.1251C1.0022 72.7919 1.13603 72.4731 1.37231 72.2381C1.6086 72.0032 1.92819 71.8712 2.26141 71.8709H10.2828C11.6601 67.6576 14.2276 63.9331 17.6754 61.1471V10.5908C17.6794 8.04695 18.6924 5.60862 20.4919 3.81065C22.2914 2.01268 24.7306 1.00189 27.2744 1H93.4575C95.9997 1.00409 98.4365 2.01593 100.234 3.81373C102.031 5.61153 103.042 8.04861 103.046 10.5908V18.9284C103.046 19.0937 103.013 19.2573 102.949 19.4099C102.886 19.5625 102.793 19.701 102.676 19.8175C102.558 19.9341 102.419 20.0263 102.266 20.089C102.114 20.1516 101.95 20.1835 101.784 20.1827H86.3717V25.4245C92.2121 25.7541 97.7055 28.3043 101.727 32.5528C105.748 36.8013 107.992 42.4265 108 48.2762ZM59.6931 57.7243H52.1151C51.9472 57.7191 51.78 57.7477 51.6234 57.8084C51.4668 57.8691 51.3239 57.9606 51.2033 58.0775C51.0827 58.1944 50.9869 58.3344 50.9214 58.4891C50.8559 58.6437 50.8222 58.81 50.8222 58.978C50.8222 59.1459 50.8559 59.3122 50.9214 59.4668C50.9869 59.6215 51.0827 59.7615 51.2033 59.8784C51.3239 59.9953 51.4668 60.0868 51.6234 60.1475C51.78 60.2082 51.9472 60.2368 52.1151 60.2316H59.6931C59.861 60.2368 60.0282 60.2082 60.1848 60.1475C60.3414 60.0868 60.4842 59.9953 60.6048 59.8784C60.7254 59.7615 60.8213 59.6215 60.8867 59.4668C60.9522 59.3122 60.986 59.1459 60.986 58.978C60.986 58.81 60.9522 58.6437 60.8867 58.4891C60.8213 58.3344 60.7254 58.1944 60.6048 58.0775C60.4842 57.9606 60.3414 57.8691 60.1848 57.8084C60.0282 57.7477 59.861 57.7191 59.6931 57.7243ZM58.8858 46.0268C58.8855 45.6948 58.7535 45.3764 58.5189 45.1415C58.2842 44.9066 57.966 44.7743 57.6339 44.7737H26.5409C26.2151 44.7837 25.906 44.9202 25.6791 45.1542C25.4521 45.3883 25.3252 45.7014 25.3252 46.0274C25.3252 46.3534 25.4521 46.6665 25.6791 46.9005C25.906 47.1346 26.2151 47.271 26.5409 47.2811H57.6339C57.9662 47.2804 58.2846 47.148 58.5193 46.9129C58.754 46.6777 58.8858 46.359 58.8858 46.0268ZM63.3596 33.0762C63.3596 32.7443 63.2279 32.4259 62.9934 32.191C62.7589 31.9561 62.4408 31.8238 62.1089 31.8231H26.5409C26.2086 31.8231 25.8898 31.9552 25.6548 32.1902C25.4198 32.4252 25.2878 32.7439 25.2878 33.0762C25.2878 33.4086 25.4198 33.7273 25.6548 33.9623C25.8898 34.1973 26.2086 34.3293 26.5409 34.3293H62.1089C62.2734 34.3293 62.4363 34.2969 62.5882 34.2339C62.7402 34.1709 62.8783 34.0786 62.9945 33.9622C63.1108 33.8458 63.203 33.7077 63.2658 33.5557C63.3287 33.4036 63.3598 33.2407 63.3596 33.0762ZM25.289 20.1257C25.289 20.4578 25.4209 20.7763 25.6556 21.0113C25.8903 21.2463 26.2088 21.3784 26.5409 21.3787H77.5014C77.8338 21.3787 78.1525 21.2467 78.3875 21.0117C78.6225 20.7767 78.7545 20.458 78.7545 20.1257C78.7545 19.7933 78.6225 19.4746 78.3875 19.2396C78.1525 19.0046 77.8338 18.8726 77.5014 18.8726H26.5409C26.2088 18.8729 25.8903 19.005 25.6556 19.24C25.4209 19.475 25.289 19.7935 25.289 20.1257Z"/>
</mask>
<path fill-rule="evenodd" clip-rule="evenodd" d="M77.9211 44.1055C78.5197 44.1072 79.1052 43.9312 79.6037 43.5999C80.1022 43.2685 80.4911 42.7967 80.7213 42.2442C80.9515 41.6917 81.0126 41.0833 80.8969 40.4961C80.7811 39.9088 80.4937 39.3691 80.071 38.9453C79.6484 38.5215 79.1095 38.2326 78.5226 38.1152C77.9356 37.9978 77.3271 38.0572 76.7739 38.2859C76.2208 38.5146 75.7479 38.9022 75.4152 39.3998C75.0825 39.8974 74.9049 40.4825 74.9049 41.081C74.9046 41.8818 75.222 42.65 75.7875 43.2171C76.353 43.7841 77.1203 44.1037 77.9211 44.1055ZM77.9211 46.6129C76.8273 46.6117 75.7583 46.2863 74.8494 45.6777C73.9404 45.0692 73.2323 44.2048 72.8145 43.1939C72.3968 42.1829 72.2881 41.0708 72.5022 39.9982C72.7163 38.9255 73.2436 37.9403 74.0175 37.1673C74.7914 36.3942 75.7771 35.8679 76.85 35.655C77.9229 35.442 79.0349 35.5519 80.0454 35.9708C81.0559 36.3896 81.9195 37.0987 82.5271 38.0083C83.1347 38.9179 83.459 39.9872 83.459 41.081C83.4571 42.5486 82.8728 43.9555 81.8345 44.9927C80.7962 46.0299 79.3887 46.6126 77.9211 46.6129ZM95.3348 55.4701C95.3341 54.8726 95.1562 54.2887 94.8236 53.7923C94.491 53.2958 94.0187 52.9092 93.4663 52.6812C92.914 52.4533 92.3064 52.3942 91.7205 52.5116C91.1346 52.6289 90.5967 52.9174 90.1747 53.3405C89.7528 53.7636 89.4658 54.3023 89.35 54.8886C89.2343 55.4748 89.295 56.0822 89.5245 56.6339C89.754 57.1856 90.1419 57.6569 90.6393 57.9881C91.1366 58.3193 91.721 58.4956 92.3186 58.4947C93.1195 58.4931 93.887 58.1737 94.4525 57.6066C95.0181 57.0394 95.3354 56.271 95.3348 55.4701ZM97.8481 55.4701C97.8485 56.565 97.5242 57.6354 96.9162 58.546C96.3082 59.4565 95.4437 60.1662 94.4322 60.5853C93.4207 61.0044 92.3077 61.1141 91.2338 60.9004C90.16 60.6867 89.1737 60.1594 88.3996 59.385C87.6256 58.6106 87.0987 57.6241 86.8855 56.5502C86.6723 55.4762 86.7824 54.3632 87.2019 53.3519C87.6215 52.3406 88.3316 51.4764 89.2423 50.8688C90.1531 50.2611 91.2237 49.9373 92.3186 49.9382C93.7847 49.9408 95.1901 50.5245 96.2266 51.5614C97.2631 52.5984 97.8462 54.004 97.8481 55.4701ZM95.1969 36.2648C95.3231 36.3704 95.4273 36.4999 95.5035 36.6458C95.5798 36.7916 95.6265 36.9511 95.6411 37.1151C95.6556 37.279 95.6378 37.4442 95.5885 37.6013C95.5392 37.7583 95.4594 37.9041 95.3538 38.0303L76.8071 60.133C76.6907 60.2723 76.5453 60.3844 76.381 60.4617C76.2167 60.5389 76.0375 60.5793 75.856 60.58C75.6172 60.5804 75.3833 60.5127 75.1816 60.3848C74.9799 60.2569 74.8189 60.0741 74.7175 59.858C74.616 59.6418 74.5783 59.4012 74.6087 59.1644C74.6392 58.9275 74.7366 58.7043 74.8895 58.5208L93.4361 36.4194C93.5416 36.2931 93.671 36.1888 93.8169 36.1127C93.9627 36.0365 94.1222 35.9899 94.2862 35.9755C94.4501 35.9612 94.6152 35.9793 94.7721 36.029C94.929 36.0786 95.0746 36.1588 95.2004 36.2648H95.1969ZM33.2914 80.3964V88.3548C34.1379 88.0882 34.8774 87.5587 35.4023 86.8431C35.9272 86.1275 36.2103 85.2631 36.2103 84.3756C36.2103 83.4881 35.9272 82.6237 35.4023 81.9081C34.8774 81.1925 34.1379 80.6629 33.2914 80.3964ZM30.7781 77.5014V69.543C29.9322 69.8102 29.1934 70.34 28.6691 71.0556C28.1447 71.7711 27.862 72.6351 27.862 73.5222C27.862 74.4093 28.1447 75.2733 28.6691 75.9889C29.1934 76.7044 29.9322 77.2342 30.7781 77.5014ZM33.2914 69.543V77.8153C34.8168 78.1078 36.1926 78.9227 37.1821 80.1199C38.1716 81.3172 38.7129 82.8218 38.7129 84.375C38.7129 85.9282 38.1716 87.4328 37.1821 88.6301C36.1926 89.8273 34.8168 90.6422 33.2914 90.9347V92.4981C33.2914 92.8314 33.159 93.151 32.9233 93.3867C32.6877 93.6223 32.368 93.7547 32.0348 93.7547C31.7015 93.7547 31.3818 93.6223 31.1462 93.3867C30.9105 93.151 30.7781 92.8314 30.7781 92.4981V90.9347C29.2537 90.6407 27.879 89.8254 26.8901 88.6286C25.9011 87.4318 25.3594 85.9281 25.358 84.3756C25.358 84.0436 25.4899 83.7251 25.7246 83.4904C25.9594 83.2556 26.2778 83.1237 26.6099 83.1237C26.9419 83.1237 27.2603 83.2556 27.4951 83.4904C27.7299 83.7251 27.8618 84.0436 27.8618 84.3756C27.8638 85.2622 28.1473 86.1253 28.6714 86.8405C29.1956 87.5556 29.9332 88.0859 30.7781 88.3548V80.0825C29.2531 79.7894 27.8778 78.9741 26.8887 77.7769C25.8997 76.5796 25.3586 75.0752 25.3586 73.5222C25.3586 71.9693 25.8997 70.4648 26.8887 69.2676C27.8778 68.0703 29.2531 67.2551 30.7781 66.9619V65.3997C30.7781 65.0664 30.9105 64.7468 31.1462 64.5111C31.3818 64.2755 31.7015 64.1431 32.0348 64.1431C32.368 64.1431 32.6877 64.2755 32.9233 64.5111C33.159 64.7468 33.2914 65.0664 33.2914 65.3997V66.9619C34.8172 67.2564 36.1927 68.073 37.1818 69.2715C38.1709 70.47 38.7118 71.9754 38.7116 73.5294C38.7246 73.7012 38.7019 73.8739 38.6451 74.0366C38.5882 74.1994 38.4984 74.3486 38.3812 74.475C38.264 74.6014 38.122 74.7022 37.9641 74.7711C37.8061 74.8401 37.6356 74.8757 37.4632 74.8757C37.2909 74.8757 37.1204 74.8401 36.9624 74.7711C36.8044 74.7022 36.6624 74.6014 36.5452 74.475C36.428 74.3486 36.3382 74.1994 36.2814 74.0366C36.2245 73.8739 36.2019 73.7012 36.2149 73.5294C36.2128 72.6424 35.9292 71.779 35.4048 71.0637C34.8805 70.3483 34.1425 69.8179 33.2974 69.549L33.2914 69.543ZM105.49 48.2762C105.49 52.3056 104.294 56.2444 102.055 59.5945C99.8159 62.9446 96.6338 65.5556 92.9109 67.0974C89.1881 68.6391 85.0917 69.0424 81.1396 68.2562C77.1876 67.47 73.5574 65.5296 70.7081 62.6805C67.8587 59.8313 65.9182 56.2012 65.1317 52.2492C64.3453 48.2972 64.7483 44.2008 66.2898 40.4778C67.8314 36.7549 70.4422 33.5726 73.7921 31.3333C77.1421 29.0941 81.0808 27.8984 85.1103 27.8974C90.5138 27.9021 95.6946 30.0507 99.5155 33.8714C103.336 37.6921 105.485 42.8727 105.49 48.2762ZM83.8584 81.464C83.8584 83.342 83.1124 85.1431 81.7844 86.471C80.4565 87.799 78.6554 88.545 76.7774 88.545C74.8994 88.545 73.0983 87.799 71.7704 86.471C70.4424 85.1431 69.6964 83.342 69.6964 81.464V73.1251C69.6961 72.9599 69.6632 72.7964 69.5996 72.6439C69.536 72.4914 69.443 72.3529 69.3258 72.2364C69.2086 72.1199 69.0696 72.0276 68.9168 71.9649C68.7639 71.9022 68.6002 71.8702 68.435 71.8709H53.7997C52.7342 68.5904 50.9405 65.5933 48.5528 63.1041C46.1652 60.6148 43.2455 58.6979 40.0122 57.4966C36.7789 56.2954 33.3158 55.8409 29.8821 56.1674C26.4484 56.4938 23.1329 57.5926 20.1839 59.3816V10.5908C20.1845 8.71076 20.9319 6.90799 22.2616 5.57896C23.5913 4.24993 25.3944 3.50348 27.2744 3.5038H86.9923C86.0056 4.40123 85.2171 5.49484 84.6775 6.7146C84.1378 7.93437 83.8588 9.25339 83.8584 10.5872V25.4245C78.0149 25.7457 72.5163 28.2932 68.4932 32.5435C64.4701 36.7938 62.2281 42.4238 62.2281 48.2762C62.2281 54.1286 64.4701 59.7586 68.4932 64.0089C72.5163 68.2591 78.0149 70.8067 83.8584 71.1278V81.464ZM70.3122 88.5462C69.3254 87.6491 68.5369 86.5557 67.9972 85.3361C67.4575 84.1165 67.1786 82.7977 67.1783 81.464V74.3794H54.4572C55.4345 79.1573 54.8541 84.1226 52.8011 88.5462H70.3122ZM52.4111 78.9483C52.4111 82.9786 51.216 86.9183 48.9768 90.2693C46.7376 93.6203 43.5549 96.232 39.8314 97.7741C36.1078 99.3162 32.0105 99.7194 28.0578 98.9328C24.105 98.1462 20.4743 96.2051 17.6248 93.3549C14.7753 90.5047 12.835 86.8736 12.0493 82.9206C11.2636 78.9677 11.6678 74.8705 13.2108 71.1473C14.7538 67.4241 17.3662 64.2421 20.7177 62.0037C24.0692 59.7653 28.0092 58.571 32.0395 58.5719C37.4415 58.5776 42.6205 60.7264 46.4398 64.5466C50.2592 68.3668 52.4067 73.5463 52.4111 78.9483ZM11.2649 88.5462C9.87336 85.538 9.15365 82.2628 9.15578 78.9483C9.15594 77.4141 9.30806 75.8837 9.60993 74.3794H3.50974V81.464C3.51132 83.3425 4.25847 85.1435 5.58708 86.4714C6.91568 87.7993 8.71707 88.5456 10.5955 88.5462H11.2649ZM93.4575 3.5038C91.5789 3.50474 89.7776 4.25126 88.449 5.57938C87.1204 6.9075 86.3733 8.70864 86.3717 10.5872V17.6706H100.534V10.5908C100.534 8.71304 99.7886 6.91206 98.4618 5.5833C97.1351 4.25455 95.3352 3.50663 93.4575 3.5038ZM108 48.2762C107.992 54.1258 105.748 59.7511 101.727 63.9996C97.7055 68.2481 92.2121 70.7983 86.3717 71.1278V81.464C86.368 84.0063 85.3565 86.4433 83.5589 88.2411C81.7614 90.0389 79.3244 91.0507 76.7822 91.0548H51.4446C49.3909 94.3518 46.5313 97.0714 43.1353 98.957C39.7394 100.843 35.9191 101.832 32.0348 101.832C28.1504 101.832 24.3301 100.843 20.9342 98.957C17.5382 97.0714 14.6786 94.3518 12.625 91.0548H10.5955C8.05232 91.0519 5.61403 90.0407 3.81527 88.2429C2.01651 86.445 1.00409 84.0072 1 81.464V73.1251C1.0022 72.7919 1.13603 72.4731 1.37231 72.2381C1.6086 72.0032 1.92819 71.8712 2.26141 71.8709H10.2828C11.6601 67.6576 14.2276 63.9331 17.6754 61.1471V10.5908C17.6794 8.04695 18.6924 5.60862 20.4919 3.81065C22.2914 2.01268 24.7306 1.00189 27.2744 1H93.4575C95.9997 1.00409 98.4365 2.01593 100.234 3.81373C102.031 5.61153 103.042 8.04861 103.046 10.5908V18.9284C103.046 19.0937 103.013 19.2573 102.949 19.4099C102.886 19.5625 102.793 19.701 102.676 19.8175C102.558 19.9341 102.419 20.0263 102.266 20.089C102.114 20.1516 101.95 20.1835 101.784 20.1827H86.3717V25.4245C92.2121 25.7541 97.7055 28.3043 101.727 32.5528C105.748 36.8013 107.992 42.4265 108 48.2762ZM59.6931 57.7243H52.1151C51.9472 57.7191 51.78 57.7477 51.6234 57.8084C51.4668 57.8691 51.3239 57.9606 51.2033 58.0775C51.0827 58.1944 50.9869 58.3344 50.9214 58.4891C50.8559 58.6437 50.8222 58.81 50.8222 58.978C50.8222 59.1459 50.8559 59.3122 50.9214 59.4668C50.9869 59.6215 51.0827 59.7615 51.2033 59.8784C51.3239 59.9953 51.4668 60.0868 51.6234 60.1475C51.78 60.2082 51.9472 60.2368 52.1151 60.2316H59.6931C59.861 60.2368 60.0282 60.2082 60.1848 60.1475C60.3414 60.0868 60.4842 59.9953 60.6048 59.8784C60.7254 59.7615 60.8213 59.6215 60.8867 59.4668C60.9522 59.3122 60.986 59.1459 60.986 58.978C60.986 58.81 60.9522 58.6437 60.8867 58.4891C60.8213 58.3344 60.7254 58.1944 60.6048 58.0775C60.4842 57.9606 60.3414 57.8691 60.1848 57.8084C60.0282 57.7477 59.861 57.7191 59.6931 57.7243ZM58.8858 46.0268C58.8855 45.6948 58.7535 45.3764 58.5189 45.1415C58.2842 44.9066 57.966 44.7743 57.6339 44.7737H26.5409C26.2151 44.7837 25.906 44.9202 25.6791 45.1542C25.4521 45.3883 25.3252 45.7014 25.3252 46.0274C25.3252 46.3534 25.4521 46.6665 25.6791 46.9005C25.906 47.1346 26.2151 47.271 26.5409 47.2811H57.6339C57.9662 47.2804 58.2846 47.148 58.5193 46.9129C58.754 46.6777 58.8858 46.359 58.8858 46.0268ZM63.3596 33.0762C63.3596 32.7443 63.2279 32.4259 62.9934 32.191C62.7589 31.9561 62.4408 31.8238 62.1089 31.8231H26.5409C26.2086 31.8231 25.8898 31.9552 25.6548 32.1902C25.4198 32.4252 25.2878 32.7439 25.2878 33.0762C25.2878 33.4086 25.4198 33.7273 25.6548 33.9623C25.8898 34.1973 26.2086 34.3293 26.5409 34.3293H62.1089C62.2734 34.3293 62.4363 34.2969 62.5882 34.2339C62.7402 34.1709 62.8783 34.0786 62.9945 33.9622C63.1108 33.8458 63.203 33.7077 63.2658 33.5557C63.3287 33.4036 63.3598 33.2407 63.3596 33.0762ZM25.289 20.1257C25.289 20.4578 25.4209 20.7763 25.6556 21.0113C25.8903 21.2463 26.2088 21.3784 26.5409 21.3787H77.5014C77.8338 21.3787 78.1525 21.2467 78.3875 21.0117C78.6225 20.7767 78.7545 20.458 78.7545 20.1257C78.7545 19.7933 78.6225 19.4746 78.3875 19.2396C78.1525 19.0046 77.8338 18.8726 77.5014 18.8726H26.5409C26.2088 18.8729 25.8903 19.005 25.6556 19.24C25.4209 19.475 25.289 19.7935 25.289 20.1257Z" fill="white"/>
<path fill-rule="evenodd" clip-rule="evenodd" d="M77.9211 44.1055C78.5197 44.1072 79.1052 43.9312 79.6037 43.5999C80.1022 43.2685 80.4911 42.7967 80.7213 42.2442C80.9515 41.6917 81.0126 41.0833 80.8969 40.4961C80.7811 39.9088 80.4937 39.3691 80.071 38.9453C79.6484 38.5215 79.1095 38.2326 78.5226 38.1152C77.9356 37.9978 77.3271 38.0572 76.7739 38.2859C76.2208 38.5146 75.7479 38.9022 75.4152 39.3998C75.0825 39.8974 74.9049 40.4825 74.9049 41.081C74.9046 41.8818 75.222 42.65 75.7875 43.2171C76.353 43.7841 77.1203 44.1037 77.9211 44.1055ZM77.9211 46.6129C76.8273 46.6117 75.7583 46.2863 74.8494 45.6777C73.9404 45.0692 73.2323 44.2048 72.8145 43.1939C72.3968 42.1829 72.2881 41.0708 72.5022 39.9982C72.7163 38.9255 73.2436 37.9403 74.0175 37.1673C74.7914 36.3942 75.7771 35.8679 76.85 35.655C77.9229 35.442 79.0349 35.5519 80.0454 35.9708C81.0559 36.3896 81.9195 37.0987 82.5271 38.0083C83.1347 38.9179 83.459 39.9872 83.459 41.081C83.4571 42.5486 82.8728 43.9555 81.8345 44.9927C80.7962 46.0299 79.3887 46.6126 77.9211 46.6129ZM95.3348 55.4701C95.3341 54.8726 95.1562 54.2887 94.8236 53.7923C94.491 53.2958 94.0187 52.9092 93.4663 52.6812C92.914 52.4533 92.3064 52.3942 91.7205 52.5116C91.1346 52.6289 90.5967 52.9174 90.1747 53.3405C89.7528 53.7636 89.4658 54.3023 89.35 54.8886C89.2343 55.4748 89.295 56.0822 89.5245 56.6339C89.754 57.1856 90.1419 57.6569 90.6393 57.9881C91.1366 58.3193 91.721 58.4956 92.3186 58.4947C93.1195 58.4931 93.887 58.1737 94.4525 57.6066C95.0181 57.0394 95.3354 56.271 95.3348 55.4701ZM97.8481 55.4701C97.8485 56.565 97.5242 57.6354 96.9162 58.546C96.3082 59.4565 95.4437 60.1662 94.4322 60.5853C93.4207 61.0044 92.3077 61.1141 91.2338 60.9004C90.16 60.6867 89.1737 60.1594 88.3996 59.385C87.6256 58.6106 87.0987 57.6241 86.8855 56.5502C86.6723 55.4762 86.7824 54.3632 87.2019 53.3519C87.6215 52.3406 88.3316 51.4764 89.2423 50.8688C90.1531 50.2611 91.2237 49.9373 92.3186 49.9382C93.7847 49.9408 95.1901 50.5245 96.2266 51.5614C97.2631 52.5984 97.8462 54.004 97.8481 55.4701ZM95.1969 36.2648C95.3231 36.3704 95.4273 36.4999 95.5035 36.6458C95.5798 36.7916 95.6265 36.9511 95.6411 37.1151C95.6556 37.279 95.6378 37.4442 95.5885 37.6013C95.5392 37.7583 95.4594 37.9041 95.3538 38.0303L76.8071 60.133C76.6907 60.2723 76.5453 60.3844 76.381 60.4617C76.2167 60.5389 76.0375 60.5793 75.856 60.58C75.6172 60.5804 75.3833 60.5127 75.1816 60.3848C74.9799 60.2569 74.8189 60.0741 74.7175 59.858C74.616 59.6418 74.5783 59.4012 74.6087 59.1644C74.6392 58.9275 74.7366 58.7043 74.8895 58.5208L93.4361 36.4194C93.5416 36.2931 93.671 36.1888 93.8169 36.1127C93.9627 36.0365 94.1222 35.9899 94.2862 35.9755C94.4501 35.9612 94.6152 35.9793 94.7721 36.029C94.929 36.0786 95.0746 36.1588 95.2004 36.2648H95.1969ZM33.2914 80.3964V88.3548C34.1379 88.0882 34.8774 87.5587 35.4023 86.8431C35.9272 86.1275 36.2103 85.2631 36.2103 84.3756C36.2103 83.4881 35.9272 82.6237 35.4023 81.9081C34.8774 81.1925 34.1379 80.6629 33.2914 80.3964ZM30.7781 77.5014V69.543C29.9322 69.8102 29.1934 70.34 28.6691 71.0556C28.1447 71.7711 27.862 72.6351 27.862 73.5222C27.862 74.4093 28.1447 75.2733 28.6691 75.9889C29.1934 76.7044 29.9322 77.2342 30.7781 77.5014ZM33.2914 69.543V77.8153C34.8168 78.1078 36.1926 78.9227 37.1821 80.1199C38.1716 81.3172 38.7129 82.8218 38.7129 84.375C38.7129 85.9282 38.1716 87.4328 37.1821 88.6301C36.1926 89.8273 34.8168 90.6422 33.2914 90.9347V92.4981C33.2914 92.8314 33.159 93.151 32.9233 93.3867C32.6877 93.6223 32.368 93.7547 32.0348 93.7547C31.7015 93.7547 31.3818 93.6223 31.1462 93.3867C30.9105 93.151 30.7781 92.8314 30.7781 92.4981V90.9347C29.2537 90.6407 27.879 89.8254 26.8901 88.6286C25.9011 87.4318 25.3594 85.9281 25.358 84.3756C25.358 84.0436 25.4899 83.7251 25.7246 83.4904C25.9594 83.2556 26.2778 83.1237 26.6099 83.1237C26.9419 83.1237 27.2603 83.2556 27.4951 83.4904C27.7299 83.7251 27.8618 84.0436 27.8618 84.3756C27.8638 85.2622 28.1473 86.1253 28.6714 86.8405C29.1956 87.5556 29.9332 88.0859 30.7781 88.3548V80.0825C29.2531 79.7894 27.8778 78.9741 26.8887 77.7769C25.8997 76.5796 25.3586 75.0752 25.3586 73.5222C25.3586 71.9693 25.8997 70.4648 26.8887 69.2676C27.8778 68.0703 29.2531 67.2551 30.7781 66.9619V65.3997C30.7781 65.0664 30.9105 64.7468 31.1462 64.5111C31.3818 64.2755 31.7015 64.1431 32.0348 64.1431C32.368 64.1431 32.6877 64.2755 32.9233 64.5111C33.159 64.7468 33.2914 65.0664 33.2914 65.3997V66.9619C34.8172 67.2564 36.1927 68.073 37.1818 69.2715C38.1709 70.47 38.7118 71.9754 38.7116 73.5294C38.7246 73.7012 38.7019 73.8739 38.6451 74.0366C38.5882 74.1994 38.4984 74.3486 38.3812 74.475C38.264 74.6014 38.122 74.7022 37.9641 74.7711C37.8061 74.8401 37.6356 74.8757 37.4632 74.8757C37.2909 74.8757 37.1204 74.8401 36.9624 74.7711C36.8044 74.7022 36.6624 74.6014 36.5452 74.475C36.428 74.3486 36.3382 74.1994 36.2814 74.0366C36.2245 73.8739 36.2019 73.7012 36.2149 73.5294C36.2128 72.6424 35.9292 71.779 35.4048 71.0637C34.8805 70.3483 34.1425 69.8179 33.2974 69.549L33.2914 69.543ZM105.49 48.2762C105.49 52.3056 104.294 56.2444 102.055 59.5945C99.8159 62.9446 96.6338 65.5556 92.9109 67.0974C89.1881 68.6391 85.0917 69.0424 81.1396 68.2562C77.1876 67.47 73.5574 65.5296 70.7081 62.6805C67.8587 59.8313 65.9182 56.2012 65.1317 52.2492C64.3453 48.2972 64.7483 44.2008 66.2898 40.4778C67.8314 36.7549 70.4422 33.5726 73.7921 31.3333C77.1421 29.0941 81.0808 27.8984 85.1103 27.8974C90.5138 27.9021 95.6946 30.0507 99.5155 33.8714C103.336 37.6921 105.485 42.8727 105.49 48.2762ZM83.8584 81.464C83.8584 83.342 83.1124 85.1431 81.7844 86.471C80.4565 87.799 78.6554 88.545 76.7774 88.545C74.8994 88.545 73.0983 87.799 71.7704 86.471C70.4424 85.1431 69.6964 83.342 69.6964 81.464V73.1251C69.6961 72.9599 69.6632 72.7964 69.5996 72.6439C69.536 72.4914 69.443 72.3529 69.3258 72.2364C69.2086 72.1199 69.0696 72.0276 68.9168 71.9649C68.7639 71.9022 68.6002 71.8702 68.435 71.8709H53.7997C52.7342 68.5904 50.9405 65.5933 48.5528 63.1041C46.1652 60.6148 43.2455 58.6979 40.0122 57.4966C36.7789 56.2954 33.3158 55.8409 29.8821 56.1674C26.4484 56.4938 23.1329 57.5926 20.1839 59.3816V10.5908C20.1845 8.71076 20.9319 6.90799 22.2616 5.57896C23.5913 4.24993 25.3944 3.50348 27.2744 3.5038H86.9923C86.0056 4.40123 85.2171 5.49484 84.6775 6.7146C84.1378 7.93437 83.8588 9.25339 83.8584 10.5872V25.4245C78.0149 25.7457 72.5163 28.2932 68.4932 32.5435C64.4701 36.7938 62.2281 42.4238 62.2281 48.2762C62.2281 54.1286 64.4701 59.7586 68.4932 64.0089C72.5163 68.2591 78.0149 70.8067 83.8584 71.1278V81.464ZM70.3122 88.5462C69.3254 87.6491 68.5369 86.5557 67.9972 85.3361C67.4575 84.1165 67.1786 82.7977 67.1783 81.464V74.3794H54.4572C55.4345 79.1573 54.8541 84.1226 52.8011 88.5462H70.3122ZM52.4111 78.9483C52.4111 82.9786 51.216 86.9183 48.9768 90.2693C46.7376 93.6203 43.5549 96.232 39.8314 97.7741C36.1078 99.3162 32.0105 99.7194 28.0578 98.9328C24.105 98.1462 20.4743 96.2051 17.6248 93.3549C14.7753 90.5047 12.835 86.8736 12.0493 82.9206C11.2636 78.9677 11.6678 74.8705 13.2108 71.1473C14.7538 67.4241 17.3662 64.2421 20.7177 62.0037C24.0692 59.7653 28.0092 58.571 32.0395 58.5719C37.4415 58.5776 42.6205 60.7264 46.4398 64.5466C50.2592 68.3668 52.4067 73.5463 52.4111 78.9483ZM11.2649 88.5462C9.87336 85.538 9.15365 82.2628 9.15578 78.9483C9.15594 77.4141 9.30806 75.8837 9.60993 74.3794H3.50974V81.464C3.51132 83.3425 4.25847 85.1435 5.58708 86.4714C6.91568 87.7993 8.71707 88.5456 10.5955 88.5462H11.2649ZM93.4575 3.5038C91.5789 3.50474 89.7776 4.25126 88.449 5.57938C87.1204 6.9075 86.3733 8.70864 86.3717 10.5872V17.6706H100.534V10.5908C100.534 8.71304 99.7886 6.91206 98.4618 5.5833C97.1351 4.25455 95.3352 3.50663 93.4575 3.5038ZM108 48.2762C107.992 54.1258 105.748 59.7511 101.727 63.9996C97.7055 68.2481 92.2121 70.7983 86.3717 71.1278V81.464C86.368 84.0063 85.3565 86.4433 83.5589 88.2411C81.7614 90.0389 79.3244 91.0507 76.7822 91.0548H51.4446C49.3909 94.3518 46.5313 97.0714 43.1353 98.957C39.7394 100.843 35.9191 101.832 32.0348 101.832C28.1504 101.832 24.3301 100.843 20.9342 98.957C17.5382 97.0714 14.6786 94.3518 12.625 91.0548H10.5955C8.05232 91.0519 5.61403 90.0407 3.81527 88.2429C2.01651 86.445 1.00409 84.0072 1 81.464V73.1251C1.0022 72.7919 1.13603 72.4731 1.37231 72.2381C1.6086 72.0032 1.92819 71.8712 2.26141 71.8709H10.2828C11.6601 67.6576 14.2276 63.9331 17.6754 61.1471V10.5908C17.6794 8.04695 18.6924 5.60862 20.4919 3.81065C22.2914 2.01268 24.7306 1.00189 27.2744 1H93.4575C95.9997 1.00409 98.4365 2.01593 100.234 3.81373C102.031 5.61153 103.042 8.04861 103.046 10.5908V18.9284C103.046 19.0937 103.013 19.2573 102.949 19.4099C102.886 19.5625 102.793 19.701 102.676 19.8175C102.558 19.9341 102.419 20.0263 102.266 20.089C102.114 20.1516 101.95 20.1835 101.784 20.1827H86.3717V25.4245C92.2121 25.7541 97.7055 28.3043 101.727 32.5528C105.748 36.8013 107.992 42.4265 108 48.2762ZM59.6931 57.7243H52.1151C51.9472 57.7191 51.78 57.7477 51.6234 57.8084C51.4668 57.8691 51.3239 57.9606 51.2033 58.0775C51.0827 58.1944 50.9869 58.3344 50.9214 58.4891C50.8559 58.6437 50.8222 58.81 50.8222 58.978C50.8222 59.1459 50.8559 59.3122 50.9214 59.4668C50.9869 59.6215 51.0827 59.7615 51.2033 59.8784C51.3239 59.9953 51.4668 60.0868 51.6234 60.1475C51.78 60.2082 51.9472 60.2368 52.1151 60.2316H59.6931C59.861 60.2368 60.0282 60.2082 60.1848 60.1475C60.3414 60.0868 60.4842 59.9953 60.6048 59.8784C60.7254 59.7615 60.8213 59.6215 60.8867 59.4668C60.9522 59.3122 60.986 59.1459 60.986 58.978C60.986 58.81 60.9522 58.6437 60.8867 58.4891C60.8213 58.3344 60.7254 58.1944 60.6048 58.0775C60.4842 57.9606 60.3414 57.8691 60.1848 57.8084C60.0282 57.7477 59.861 57.7191 59.6931 57.7243ZM58.8858 46.0268C58.8855 45.6948 58.7535 45.3764 58.5189 45.1415C58.2842 44.9066 57.966 44.7743 57.6339 44.7737H26.5409C26.2151 44.7837 25.906 44.9202 25.6791 45.1542C25.4521 45.3883 25.3252 45.7014 25.3252 46.0274C25.3252 46.3534 25.4521 46.6665 25.6791 46.9005C25.906 47.1346 26.2151 47.271 26.5409 47.2811H57.6339C57.9662 47.2804 58.2846 47.148 58.5193 46.9129C58.754 46.6777 58.8858 46.359 58.8858 46.0268ZM63.3596 33.0762C63.3596 32.7443 63.2279 32.4259 62.9934 32.191C62.7589 31.9561 62.4408 31.8238 62.1089 31.8231H26.5409C26.2086 31.8231 25.8898 31.9552 25.6548 32.1902C25.4198 32.4252 25.2878 32.7439 25.2878 33.0762C25.2878 33.4086 25.4198 33.7273 25.6548 33.9623C25.8898 34.1973 26.2086 34.3293 26.5409 34.3293H62.1089C62.2734 34.3293 62.4363 34.2969 62.5882 34.2339C62.7402 34.1709 62.8783 34.0786 62.9945 33.9622C63.1108 33.8458 63.203 33.7077 63.2658 33.5557C63.3287 33.4036 63.3598 33.2407 63.3596 33.0762ZM25.289 20.1257C25.289 20.4578 25.4209 20.7763 25.6556 21.0113C25.8903 21.2463 26.2088 21.3784 26.5409 21.3787H77.5014C77.8338 21.3787 78.1525 21.2467 78.3875 21.0117C78.6225 20.7767 78.7545 20.458 78.7545 20.1257C78.7545 19.7933 78.6225 19.4746 78.3875 19.2396C78.1525 19.0046 77.8338 18.8726 77.5014 18.8726H26.5409C26.2088 18.8729 25.8903 19.005 25.6556 19.24C25.4209 19.475 25.289 19.7935 25.289 20.1257Z" stroke="white" mask="url(#path-1-outside-1_505_52)"/>
</svg>
