<?xml version="1.0" standalone="no"?>
<!DOCTYPE svg PUBLIC "-//W3C//DTD SVG 20010904//EN"
 "http://www.w3.org/TR/2001/REC-SVG-20010904/DTD/svg10.dtd">
<svg version="1.0" xmlns="http://www.w3.org/2000/svg"
 width="313.000000pt" height="313.000000pt" viewBox="0 0 313.000000 313.000000"
 preserveAspectRatio="xMidYMid meet">

<g transform="translate(0.000000,313.000000) scale(0.100000,-0.100000)"
fill="#000000" stroke="none">
<path d="M0 1565 l0 -1565 1565 0 1565 0 0 1565 0 1565 -1565 0 -1565 0 0
-1565z m1020 1293 c-19 -5 -51 -17 -70 -26 l-35 -17 -3 -528 -2 -527 39 0 39
0 -5 73 c-18 232 157 377 453 377 161 0 287 -37 396 -117 l47 -34 -75 -117
c-77 -119 -102 -152 -91 -120 9 26 -11 136 -34 180 -30 58 -88 112 -163 148
-59 29 -76 33 -150 33 -75 1 -88 -2 -126 -27 -53 -35 -80 -91 -80 -171 0 -73
13 -121 43 -166 21 -31 28 -34 69 -33 67 0 129 43 212 144 37 47 72 86 76 88
4 1 -15 -80 -41 -180 -26 -101 -45 -186 -41 -189 4 -3 36 -13 72 -23 150 -40
273 -107 310 -169 l20 -32 340 4 340 3 -10 -28 c-5 -16 -30 -96 -57 -179 l-47
-150 -6 55 c-6 61 -17 85 -52 116 -36 33 -83 45 -200 51 l-108 6 0 -492 c0
-316 4 -499 10 -511 13 -25 43 -41 105 -56 43 -11 10 -12 -240 -12 -250 0
-283 1 -240 12 67 17 94 32 105 62 6 15 10 195 10 423 l0 398 -41 -39 c-89
-85 -203 -121 -379 -120 -182 0 -330 45 -429 129 l-34 29 80 123 80 123 6 -62
c15 -168 160 -302 344 -317 160 -14 263 78 263 234 0 74 -12 84 -87 74 -34 -5
-77 -17 -95 -25 -47 -23 -111 -91 -142 -151 -31 -60 -31 -56 -6 110 26 175 27
172 -12 180 -18 4 -74 26 -124 50 -73 35 -103 57 -152 110 -34 36 -62 70 -62
75 0 6 -98 10 -255 10 -140 0 -255 4 -255 8 0 4 14 16 30 26 17 9 44 41 60 69
l30 52 0 491 c0 384 -3 494 -13 508 -7 10 -37 26 -67 36 l-55 19 270 -1 c190
0 260 -3 235 -10z"/>
</g>
</svg>
